<svg width="1358" height="393" viewBox="0 0 1358 393" fill="none" xmlns="http://www.w3.org/2000/svg">
<path d="M572.899 97C606.499 97 635.6 116.501 651.5 145.601L631.399 155.8C619.399 133.9 597.799 119.5 572.899 119.5C535.1 119.5 504.199 153.7 504.199 196C504.199 238 535.1 272.5 572.899 272.5C607.399 272.5 636.2 244 641 207.101H567.199V184.601H663.5C664.1 188.5 664.1 192.1 664.1 196C664.1 250.6 623.299 294.7 572.899 294.7C522.8 294.7 482 250.6 482 196C482 141.4 522.8 97.0001 572.899 97Z" fill="black"/>
<path fill-rule="evenodd" clip-rule="evenodd" d="M750.867 151C788.067 151 819.267 179.8 822.567 216.4C822.867 218.8 822.867 220.9 822.867 223C822.867 224.8 822.867 226.9 822.567 229.3L822.268 233.8H742.468C726.568 233.8 711.868 239.5 707.067 247.3C715.767 263.2 732.867 273.4 750.867 273.4C765.867 273.4 779.668 266.8 789.268 255.4L791.968 252.4L810.867 263.2L807.268 267.7C793.468 284.8 773.067 294.7 750.867 294.7C711.267 294.7 679.168 262.6 679.168 223C679.168 183.4 711.267 151 750.867 151ZM750.867 172.601C723.267 172.601 700.468 195.1 700.468 223V223.601C711.268 216.401 726.268 212.2 742.468 212.2H800.067C795.267 189.1 774.867 172.601 750.867 172.601Z" fill="black"/>
<path fill-rule="evenodd" clip-rule="evenodd" d="M909.949 151C929.449 151 947.45 158.5 961.25 172.3C974.75 185.8 982.25 203.8 982.25 223C982.25 242.2 974.449 260.2 960.649 274C947.149 287.5 928.849 294.7 909.649 294.7C870.05 294.7 837.95 262.3 838.25 222.7C838.25 183.1 870.649 151 909.949 151ZM945.949 187.9C936.349 177.7 923.449 172.301 909.949 172.601C896.449 172.601 883.85 177.7 874.55 187C865.25 196.6 859.85 209.2 859.85 222.7C859.85 250 881.75 272.801 909.35 273.101H910.25C939.35 273.1 959.15 248.8 960.35 226C961.25 211.9 955.849 198.1 945.949 187.9Z" fill="black"/>
<path d="M1017.13 164.8C1028.83 154.3 1044.73 149.5 1060.63 151.3C1073.53 152.8 1084.93 158.8 1094.53 168.7L1097.53 171.7L1102.93 167.2C1104.73 165.7 1106.83 163.9 1108.63 162.4C1121.53 152.5 1138.03 148.9 1154.23 152.2C1170.43 155.8 1183.93 166.3 1191.43 180.7C1195.93 189.4 1198.03 198.401 1198.03 208.601C1197.73 228.1 1198.03 247.601 1198.03 267.101V294.7H1174.63V206.5C1174.63 189.7 1161.13 175 1144.93 174.4C1125.73 173.5 1111.03 185.801 1109.83 204.101V294.7H1086.13V206.5C1086.13 196.9 1082.23 188.2 1075.33 181.9C1068.43 175.9 1059.13 173.2 1049.53 174.4C1033.03 176.501 1021.63 189.7 1021.63 206.5V294.7H998.231V269.8C997.931 249.4 997.931 227.5 998.231 206.2C998.231 190.3 1005.13 175.3 1017.13 164.8Z" fill="black"/>
<path fill-rule="evenodd" clip-rule="evenodd" d="M1285.54 151C1322.74 151 1353.94 179.8 1357.24 216.4C1357.54 218.8 1357.54 220.9 1357.54 223C1357.54 224.8 1357.54 226.9 1357.24 229.3L1356.94 233.8H1277.14C1261.24 233.8 1246.54 239.5 1241.74 247.3C1250.44 263.2 1267.54 273.4 1285.54 273.4C1300.54 273.4 1314.34 266.8 1323.94 255.4L1326.64 252.4L1345.54 263.2L1341.94 267.7C1328.14 284.8 1307.74 294.7 1285.54 294.7C1245.94 294.7 1213.84 262.6 1213.84 223C1213.84 183.4 1245.94 151 1285.54 151ZM1285.54 172.601C1257.94 172.601 1235.14 195.1 1235.14 223V223.601C1245.94 216.401 1260.94 212.2 1277.14 212.2H1334.74C1329.94 189.1 1309.54 172.601 1285.54 172.601Z" fill="black"/>
<path d="M181.57 199.684C173.912 233.94 188.116 266.834 215.494 287.568C220.104 291.058 225.355 293.764 229.908 297.337C263.363 323.611 229.938 365.478 191.241 346.253C148.411 324.975 151.111 247.133 171.797 211.364C174.348 206.953 177.493 202.793 181.57 199.682V199.684Z" fill="black"/>
<path d="M174.318 196.063C168.687 199.974 163.487 203.557 158.89 208.739C136.668 233.783 143.686 262.276 137.251 291.668C129.913 325.173 87.5749 326.746 90.8437 282.758C92.6768 258.101 113.016 232.774 130.771 216.897C143.044 205.925 157.436 197.194 174.321 196.06L174.318 196.063Z" fill="black"/>
<path d="M191.223 205.455C191.193 204.776 190.898 199.952 192.454 201.499H192.451C205.91 229.61 233.484 241.268 262.999 245.53C273.142 246.994 285.878 245.231 291.529 256.301C298.993 270.924 286.073 285.351 271.37 286.701C245.033 289.12 218.302 271.004 203.816 250.28C193.899 236.093 191.961 222.456 191.223 205.455Z" fill="black"/>
<path d="M40.417 170.724C58.5123 140.5 94.885 128.993 128.365 137.127C150.496 142.505 180.209 158.632 182.172 183.968C165.976 170.527 144.148 162.152 123.062 168.098C117.077 169.786 100.884 177.591 97.9994 182.94C96.446 185.823 96.0854 189.775 98.7022 192.153C103.366 196.392 109.554 191.098 114.043 189.302C132.43 181.955 150.447 178.063 169.471 186.094C171.228 186.836 173.762 187.848 174.924 189.403C154.648 188.276 134.962 195.068 118.494 206.443C98.5679 220.205 82.9327 244.035 55.0278 233.384C29.9338 223.805 28.0931 191.311 40.417 170.724Z" fill="black"/>
<path d="M289.24 156.49C315.521 126.17 356.869 159.438 340.124 195.254C319.206 239.994 242.659 232.612 209.208 208.034C207.66 206.897 196.648 197.579 197.915 196.058C211.135 199.753 226.308 200.502 239.63 196.961C255.483 192.746 273.272 179.619 282.817 166.389C285.089 163.24 286.565 159.578 289.24 156.49Z" fill="black"/>
<path d="M259.93 85.5028C265.966 79.2945 276.683 79.1328 282.954 85.0693H282.957C296.038 97.457 288.983 123.63 280.626 137.005C264.102 163.455 234.537 185.205 203.348 190.01C202.981 188.443 203.814 188.955 204.488 188.453C225.517 172.845 239.726 158.948 246.837 132.854C250.214 120.459 251.819 93.8474 259.93 85.5028Z" fill="black"/>
<path d="M158.89 47.9795C167.313 33.0431 187.62 30.4222 202.265 37.2843C255.247 62.1134 236.985 150.012 200.641 181.568C200.035 182.093 196.571 185.045 196.09 184.568C198.249 179.061 199.81 173.315 201.121 167.543C209.33 131.404 201.228 106.753 174.328 82.1276C163.509 72.2236 148.914 65.669 158.89 47.9795Z" fill="black"/>
<path d="M182.175 183.971H182.172L182.172 183.968L182.175 183.971Z" fill="black"/>
<path d="M117.969 97.1357C124.956 83.2225 143.59 86.5972 154.983 92.399C187.765 109.097 195.668 145.185 189.434 179.134L189.431 179.132L182.7 157.163C177.276 145.084 166.996 134.438 155.187 128.455C142.488 122.021 106.765 119.444 117.969 97.1357Z" fill="black"/>
</svg>
