<?xml version="1.0" encoding="UTF-8"?>
<svg id="Layer_2" data-name="Layer 2" xmlns="http://www.w3.org/2000/svg" viewBox="0 0 32 32" width="32" height="32">
  <defs>
    <style>
      .cls-1 {
        fill: #080808;
      }
    </style>
  </defs>
  <g id="Layer_1-2" data-name="Layer 1" transform="scale(0.025)">
    <path class="cls-1" d="M608.73,613.64c-66.09-54.89-155.17-89.09-241.22-64.81-24.42,6.89-90.5,38.76-102.27,60.6-6.34,11.77-7.81,27.91,2.87,37.62,19.03,17.31,44.28-4.31,62.6-11.64,75.03-30,148.55-45.89,226.18-13.1,7.17,3.03,17.51,7.16,22.25,13.51-82.74-4.6-163.07,23.13-230.27,69.58-81.31,56.19-145.11,153.49-258.98,110-102.4-39.11-109.91-171.79-59.62-255.85,73.84-123.41,222.26-170.39,358.88-137.18,90.31,21.96,211.57,87.81,219.57,191.27Z"/>
    <path class="cls-1" d="M606.26,677.8c-31.25,139.87,26.71,274.18,138.43,358.84,18.81,14.25,40.24,25.3,58.82,39.89,136.52,107.28.12,278.23-157.79,199.73-174.77-86.88-163.75-404.72-79.34-550.77,10.41-18.01,23.24-35,39.88-47.7Z"/>
    <path class="cls-1" d="M672.94,662.99c53.95,15.09,115.87,18.15,170.24,3.69,64.69-17.21,137.28-70.81,176.23-124.83,9.27-12.86,15.29-27.81,26.21-40.42,107.24-123.8,275.97,12.04,207.64,158.28-85.36,182.68-397.72,152.54-534.22,52.18-6.32-4.64-51.27-42.7-46.08-48.9Z"/>
    <path class="cls-1" d="M665.51,616.08c8.81-22.49,15.18-45.95,20.53-69.52,33.5-147.56.44-248.21-109.33-348.76-44.15-40.44-103.71-67.2-63-139.43,34.37-60.99,117.24-71.69,177-43.67,216.2,101.38,141.68,460.28-6.63,589.13-2.47,2.14-16.61,14.2-18.57,12.25Z"/>
    <path class="cls-1" d="M576.67,663.01c-22.98,15.97-44.2,30.6-62.96,51.76-90.68,102.26-62.04,218.6-88.3,338.61-29.94,136.81-202.71,143.23-189.37-36.38,7.48-100.68,90.48-204.09,162.93-268.92,50.08-44.8,108.81-80.45,177.71-85.08Z"/>
    <path class="cls-1" d="M650.66,685.21c54.92,114.78,167.44,162.38,287.88,179.78,41.39,5.98,93.36-1.22,116.42,43.98,30.46,59.71-22.26,118.62-82.26,124.13-107.47,9.88-216.55-64.09-275.66-148.71-40.47-57.93-48.38-113.61-51.39-183.03-.12-2.77-1.33-22.47,5.02-16.15Z"/>
    <path class="cls-1" d="M1019.98,209.81c53.38,50.58,24.59,157.45-9.51,212.06-67.43,108-188.07,196.81-315.34,216.43-1.5-6.4,1.9-4.31,4.65-6.36,85.81-63.73,143.79-120.47,172.81-227.02,13.78-50.61,20.33-159.27,53.43-193.34,24.63-25.35,68.36-26.01,93.95-1.77Z"/>
    <path class="cls-1" d="M638.34,593.88l-27.47-89.7c-22.13-49.32-64.08-92.79-112.27-117.22-51.82-26.27-197.59-36.79-151.87-127.88,28.51-56.81,104.55-43.03,151.04-19.34,133.77,68.18,166.02,215.53,140.58,354.15Z"/>
  </g>
</svg>